<svg width="1000" height="1053" xmlns="http://www.w3.org/2000/svg" preserveAspectRatio="xMidYMid meet">
 <metadata>Created by potrace 1.11, written by Peter Selinger 2001-2013</metadata>

 <g>
  <title>background</title>
  <rect fill="none" id="canvas_background" height="402" width="582" y="-1" x="-1"/>
 </g>
 <g>
  <title>Layer 1</title>
  <g id="svg_1" fill="#000000" transform="translate(0,1053) scale(0.10000000149011612,-0.10000000149011612) ">
   <path stroke="#000" fill="#fff" id="svg_2" d="m5020,9810.222511c-86,-24 -120,-93 -145,-303c-5,-42 -19,-109 -39,-185c-18,-65 -76,-210 -113,-281c-83,-159 -195,-286 -339,-386c-40,-27 -173,-94 -246,-123c-51,-20 -81,-50 -65,-67c9,-9 42,-10 52,-2c6,4 58,28 115,52c163,70 333,156 362,185c6,6 16,12 20,12c11,0 197,120 257,166c175,134 318,328 365,494c56,202 26,374 -74,422c-46,21 -106,28 -150,16z"/>
   <path stroke="#000" fill="#fff" id="svg_3" d="m5777,9791.222511c-48,-11 -87,-31 -110,-57c-21,-23 -63,-141 -72,-204c-59,-408 -228,-688 -568,-941c-127,-95 -406,-257 -443,-257c-6,0 -19,-9 -30,-21c-16,-17 -16,-22 -4,-29c21,-14 47,-12 83,4c18,8 88,38 157,67c143,60 369,174 486,244c498,302 749,621 731,930c-11,189 -102,293 -230,264z"/>
   <path stroke="#000" fill="#fff" id="svg_4" d="m6208,8597.222511c-3,-2 -90,-13 -173,-20c-162,-15 -434,-96 -574,-171c-287,-154 -458,-375 -542,-702l-23,-90l-136,138c-307,313 -599,491 -1015,620c-58,17 -152,40 -250,59c-95,18 -130,24 -242,36c-27,3 -64,8 -83,11c-43,6 -386,6 -420,0c-14,-2 -52,-7 -85,-11c-32,-4 -66,-8 -75,-10c-8,-2 -55,-10 -105,-19c-133,-25 -268,-62 -375,-103c-97,-37 -233,-104 -261,-129c-8,-8 -19,-14 -23,-14c-15,0 -144,-104 -214,-172c-194,-189 -340,-461 -421,-784c-44,-178 -56,-276 -56,-474c0,-129 9,-258 20,-300c2,-8 6,-26 9,-40c8,-50 47,-196 58,-220c6,-14 14,-34 18,-45c95,-243 309,-487 555,-631c27,-16 59,-34 70,-41c11,-6 36,-20 55,-29c19,-10 75,-42 124,-71c49,-29 92,-53 97,-53c5,0 9,-4 9,-8c0,-5 19,-19 42,-32c61,-34 163,-141 189,-196c24,-54 31,-140 15,-194c-14,-50 -71,-135 -120,-176c-89,-77 -263,-159 -431,-204c-101,-27 -93,-25 -216,-45c-111,-19 -140,-34 -133,-68c4,-23 30,-47 50,-47c10,0 208,34 259,44c150,31 338,97 493,174c88,45 228,126 242,142c3,3 23,17 45,32c188,124 426,387 527,583c106,205 141,346 142,570c1,216 -13,303 -72,444c-130,308 -421,523 -1067,789c-88,37 -246,121 -308,166c-149,106 -209,223 -185,357c41,227 281,467 578,579c53,20 189,57 240,66c14,3 50,9 80,14c227,39 452,-18 660,-169c115,-83 257,-232 309,-324c46,-81 96,-214 107,-282c3,-22 8,-43 9,-46c2,-3 7,-34 10,-70c3,-35 10,-99 14,-142c7,-80 6,-853 -3,-1742c-3,-275 -8,-904 -12,-1397l-6,-898l50,5c68,7 201,55 323,117c100,50 328,197 404,260c201,168 349,326 465,498c24,36 51,76 60,90c9,14 38,68 64,120c69,139 72,174 70,644l-2,399l177,-7c97,-4 190,-9 206,-11c17,-1 64,-6 105,-9c90,-8 155,-14 195,-21c17,-2 50,-7 75,-10c25,-3 56,-7 70,-10c14,-3 50,-9 80,-15c30,-6 65,-12 77,-14c92,-18 315,-85 411,-122c496,-196 781,-500 947,-1010c39,-118 87,-319 99,-414c2,-19 7,-57 11,-85c3,-27 8,-59 10,-70c6,-29 18,-267 18,-350c0,-87 -12,-325 -18,-345c-2,-8 -6,-42 -10,-75c-34,-328 -147,-707 -287,-965c-77,-143 -170,-274 -278,-394c-178,-198 -316,-300 -540,-399c-89,-40 -266,-83 -384,-94c-92,-9 -290,-9 -341,0c-196,35 -440,181 -641,381c-133,134 -241,288 -479,681c-203,336 -309,490 -439,640c-268,306 -568,483 -931,549c-16,3 -41,8 -55,11c-121,25 -537,25 -665,1c-11,-2 -42,-7 -70,-10c-157,-21 -417,-96 -563,-162c-169,-78 -320,-166 -447,-263c-390,-298 -587,-638 -631,-1086c-5,-52 -3,-62 14,-78c15,-14 29,-17 52,-12c38,8 45,26 53,125c4,41 9,86 12,100c3,14 7,36 10,49c36,184 190,404 348,499c102,62 188,85 317,88c98,2 127,-1 200,-22c162,-48 304,-138 573,-363c79,-67 438,-343 502,-387c16,-11 80,-54 140,-95c162,-111 371,-233 530,-310c293,-142 768,-318 1035,-385c120,-29 120,-30 225,-53c50,-11 108,-22 130,-25c22,-4 47,-8 55,-11c8,-2 38,-6 65,-10c28,-3 61,-7 75,-10c22,-3 81,-10 175,-20c202,-22 645,-22 830,0c16,2 59,6 95,10c120,12 132,13 310,41c137,21 171,27 320,59c14,3 94,22 130,30c344,82 768,250 1029,408c52,31 98,57 103,57c4,0 8,5 8,10c0,6 5,10 10,10c14,0 177,118 275,200c482,403 785,940 870,1547c3,23 8,57 11,75c10,58 12,451 4,523c-5,39 -11,93 -14,120c-24,203 -102,487 -191,696c-75,175 -229,437 -317,541c-13,15 -34,41 -46,57c-32,41 -137,148 -192,195c-135,116 -420,273 -647,355c-132,48 -328,108 -398,123c-27,5 -70,14 -95,20c-25,6 -85,18 -135,27l-90,17l215,53c118,29 222,55 230,57c8,1 52,12 97,23c45,11 92,22 105,25c13,2 55,12 93,21c39,9 81,18 95,21c14,2 43,8 65,14c35,8 78,17 176,35c13,3 35,7 49,10c14,3 52,10 85,15c33,6 74,12 90,15c78,13 93,15 135,21c25,3 56,8 70,10c14,2 65,7 114,11c126,8 140,13 144,49c5,58 2,59 -225,60c-183,0 -217,3 -288,23c-197,55 -324,163 -413,351c-29,63 -66,175 -76,235c-24,143 -31,194 -41,320c-11,131 -54,349 -86,440c-21,58 -26,71 -58,140c-88,188 -255,373 -471,519c-235,160 -448,218 -812,222c-114,1 -208,0 -210,-1zm-374,-369c93,-32 139,-60 203,-125c71,-72 107,-144 163,-326c5,-16 16,-68 25,-115c19,-105 26,-149 45,-305c6,-49 13,-97 15,-105c2,-8 7,-42 10,-75c13,-126 69,-335 115,-426c55,-109 164,-232 275,-311c129,-92 385,-189 568,-213c18,-3 43,-7 57,-10c54,-11 330,-40 430,-45c19,-1 -244,-72 -345,-94c-11,-2 -40,-9 -65,-16c-25,-7 -56,-14 -69,-17c-20,-3 -110,-24 -161,-38c-30,-7 -325,-77 -345,-81c-11,-2 -65,-15 -120,-28c-55,-14 -113,-28 -130,-31c-16,-3 -34,-7 -40,-9c-33,-10 -243,-59 -304,-72c-12,-3 -53,-12 -90,-20c-36,-9 -74,-18 -83,-20c-10,-2 -26,-6 -35,-8c-10,-3 -70,-17 -133,-31c-63,-15 -162,-38 -220,-51c-58,-14 -132,-31 -165,-38c-33,-8 -131,-31 -218,-51c-87,-20 -161,-34 -164,-31c-4,3 -6,405 -7,893c0,786 5,1064 19,1168c2,17 6,48 9,70c28,225 123,411 257,502c131,89 341,113 503,59z"/>
  </g>
 </g>
</svg>